# xmcd
#
# Track frame offsets:
#	150
#	12596
#	26473
#	43473
#	57752
#	76500
#	89887
#	102482
#	120081
#	136010
#	151169
#	164137
#
# Disc length: 2410 seconds
# Revision: 0
# Processed by: cddbd v1.5.2PL0 Copyright (c) Steve Scherf et al.
# Submitted via: dBpowerAMP V12.0
#
DISCID=9309680c
DTITLE=Al Jones and the Spruce Mountain Boys - Hard Core Bluegrass
DYEAR=2014
DGENRE=Country
TTITLE0=Calling Your Name
TTITLE1=Cheap Love Affair
TTITLE2=Nancy
TTITLE3=Homesick
TTITLE4=Love and Wealth
TTITLE5=Rainbow
TTITLE6=I Can Never shed Another Tear My Darling
TTITLE7=As Long as I Live
TTITLE8=Iron Curtain
TTITLE9=Stone Wall
TTITLE10=My Friend Frank
TTITLE11=This World is Not My Home
EXTD=
EXTT0=
EXTT1=
EXTT2=
EXTT3=
EXTT4=
EXTT5=
EXTT6=
EXTT7=
EXTT8=
EXTT9=
EXTT10=
EXTT11=
PLAYORDER=
